# xmcd
#
# Track frame offsets: 
#        150
#        13454
#        27146
#        43184
#        60777
#        70940
#        89346
#        96422
#        110319
#        127647
#        150299
#        163938
#        183328
#        204991
#
# Disc length: 2916 seconds
#
# Revision: 0
# Processed by: cddbd v1.5.2PL0 Copyright (c) Steve Scherf et al.
# Submitted via: ExactAudioCopy v1.1
#
DISCID=ac0b620e
DTITLE=Wojtek Szumański - Ogólnie rzecz biorąc
DYEAR=2017
DGENRE=Ballad
TTITLE0=Blues
TTITLE1=Ogólnie rzecz biorąc
TTITLE2=Autobus
TTITLE3=Tylko ja
TTITLE4=Bum bum!
TTITLE5=Po kolei
TTITLE6=Ballada o cyckach
TTITLE7=Dziki west
TTITLE8=Piosenka o siusiaku, a właściwie jego braku
TTITLE9=Różaniec
TTITLE10=Smutna piosenka
TTITLE11=Wymyślona dziewczyna
TTITLE12=Całą noc
TTITLE13=Betoniarka
EXTD=
EXTT0=
EXTT1=
EXTT2=
EXTT3=
EXTT4=
EXTT5=
EXTT6=
EXTT7=
EXTT8=
EXTT9=
EXTT10=
EXTT11=
EXTT12=
EXTT13=
PLAYORDER=
